<svg id="Layer_1" data-name="Layer 1" xmlns="http://www.w3.org/2000/svg" width="13.9in" height="13.9in" viewBox="0 0 1000 1000"><title>candy</title><path d="M101.4,279.5c4.9-.9,9.6-3.1,14.6-3.6a208.9,208.9,0,0,1,164.7,71.4,218.1,218.1,0,0,1,40.2,68.1,211.2,211.2,0,0,1,88.4-92,207.7,207.7,0,0,1,213.9,9.3c24,15.4,44.2,36.4,60,60,4.9,7.7,9.8,15.5,13.3,23.9,17.5-51.5,56.4-95,105-119.1A211.4,211.4,0,0,1,849,280.7a175.2,175.2,0,0,1,55.9-4.3c9.9,3.6,19.9,7.7,28.2,14.3,23.2,17.2,36.1,46.6,35.3,75.2a93.4,93.4,0,0,1-17.2,52.8,95,95,0,0,1,12.5,132.4c19.1,24.8,24.2,59.2,14,88.7-8.1,24.1-26.9,45.2-51.3,53.3-4.5.6-7.9,4.2-12.5,4.6-11,1-22.1,1.8-33.1.6-62.1-2.9-121.3-36.6-157.2-87.1a223.4,223.4,0,0,1-17.8-29.8,212.1,212.1,0,0,1-55.4,84.1,209.6,209.6,0,0,1-93.8,50.2c-14,3.6-28.4,4.3-42.8,5.4-23.6.2-47.5-2.5-70-10a214.1,214.1,0,0,1-90.6-58.7c-18.3-20.7-33.1-44.7-42.2-70.9A209.2,209.2,0,0,1,161.7,695.4c-11.6,2-23.3,2.7-35,3.5-8.7.5-17.3-1.3-26-1-6.2.2-12.2-1.9-18-3.9-11.5-4.5-22.3-11.3-30.5-20.6-29.3-30.9-32.5-82.5-7.8-117-17-18.2-25.4-43.7-24-68.5.1-13.8,4.3-27.4,10.8-39.5a86.2,86.2,0,0,1,26-30.3A95,95,0,0,1,42,354c2-14.2,6.5-28.2,14.6-40.1,10.7-15.9,26.3-29.1,44.8-34.4M115,308c-9.2,2.2-18.2,6.3-24.6,13.4-12.9,12.4-18.8,31-17.5,48.6,1.2,13.8,6.1,27.8,15.8,37.9a15.5,15.5,0,0,1,4.7,12.9c-.4,4.8-3.9,8.5-5.9,12.7s-6.2,6-9.8,8.2c-13.2,8.3-21.8,22.7-25.2,37.7C49,500,54,523.3,69.9,537.8c4,4.1,9.9,6.2,12.5,11.5a15.5,15.5,0,0,1-3,18.1c-2.3,2.4-5.6,3.5-8.7,4.5-2.9,5.5-6.6,10.8-8.2,16.9-7.2,20.4-3.2,44.5,10.5,61.3,7.3,7.7,16.2,14.8,26.9,16.7,10-.2,20,2,30,.9,8.4-.6,16.8-1.2,25.1-2.5a176.5,176.5,0,0,0,89.4-44.8,181.3,181.3,0,0,0,52.3-88.3c-32.4,17.3-68.9,27.5-105.8,28.1-7.8-.3-14.5-7.6-14.3-15.4a15.5,15.5,0,0,1,14.2-15.4,291.7,291.7,0,0,0,30.9-3.3c27.6-5.4,54.2-15.9,77.5-31.7l.9-9.8c-28.3-30.2-67-49.9-107.4-57.9a15.5,15.5,0,0,1-5.5-28.5c4-2.6,9.1-2.6,13.7-1.5,34,7.1,66.8,21.2,94.6,42.2-3.2-10.4-6.4-20.8-11.2-30.5a180.7,180.7,0,0,0-48.9-62.1,177.2,177.2,0,0,0-103.5-39.5c-5.6-.1-11.4-.8-16.9,1.2m756.8.4c-29.3,3.3-57.6,14.8-81.5,31.9-30.2,21.9-53.6,53.1-65.4,88.5,22.7-13,47.2-23.3,73-28,7.8-1.4,15.9,4.4,17.3,12.2s-3.9,16.8-12,18.3c-31.9,6.9-62.3,21-87.6,41.7.2,7.1,1.7,14,1.9,21,.3,1.9-.3,4.4,1.9,5.4a207.2,207.2,0,0,0,97.8,34.5,15.4,15.4,0,0,1,4.5,28.9c-5,2.8-10.9,1.4-16.3.9A238.9,238.9,0,0,1,721.9,537c6.9,25,19.8,48,36.1,68,6.7,8.3,14.8,15.2,22.7,22.3a178.7,178.7,0,0,0,82.2,38.1c15.9,2.1,32.1,3.8,48.1,1.5,5.9-3,12.2-5.3,17.5-9.3,8.9-6,15.1-15.3,19.1-25.1a65.6,65.6,0,0,0-1.4-50.9c-3.3-7.5-8.6-13.9-13.9-20a15.4,15.4,0,0,1-3.9-16.5c1.9-5.6,7.4-8.4,11-12.8,16.5-19.7,19.4-49.8,6.4-72.1a55.7,55.7,0,0,0-24.6-23.4c-9.2-4.9-11.7-19.2-3.7-26.3,20.2-17.8,25.5-49.1,14.3-73.2-6.2-14.3-18.8-25.8-33.7-30.1-8.8-.8-17.6.4-26.3,1.2M501.3,329.3a171.2,171.2,0,0,0-57,11.9,178.9,178.9,0,0,0-88.8,75.3c-21.1,34.9-29.5,77-24.3,117.3,3,17.8,7.1,35.5,15,51.8s17.2,30.9,28.6,44.4c25,27.8,58.4,48.2,95.1,56.1,10.8,2.6,21.9,3.3,33,4,9.4.7,18.7-.6,28.1-1.4,13.5-1.1,26.7-4.9,39.5-9.4a178.7,178.7,0,0,0,83-63.8,180.7,180.7,0,0,0,33.3-93.6c-1.5-12.2-2.9-24.6-2.6-36.9a53.2,53.2,0,0,0-1.6-16.4,183.8,183.8,0,0,0-37.2-75c-10.9-13.1-23.4-24.9-37.8-34.1A175,175,0,0,0,501.3,329.3Z" fill="#f6dddd"/><path d="M149.4,323.5c8.1-2.2,17.2,3.3,18.8,11.5s-3.6,17-11.8,18.5-17.4-4.1-18.5-12.6S141.8,325.3,149.4,323.5Z" fill="#f6dddd"/><path d="M889.4,343.6c7.9-2.8,17.4,2.1,19.6,10.3s-3.2,18.2-11.9,19.6S880.2,369.2,879,361A15.6,15.6,0,0,1,889.4,343.6Z" fill="#f6dddd"/><path d="M569.4,363.4c8.9-2.8,19,4.2,19.5,13.5s-6.2,16.9-14.8,16.9-15.8-6.5-16-14.6A15.5,15.5,0,0,1,569.4,363.4Z" fill="#f6dddd"/><path d="M449.3,394.5c8.5-3.5,19.1,2.4,20.6,11.5s-3.9,16.6-12,18.1-15.6-2.9-17.8-10.2S441.7,397.1,449.3,394.5Z" fill="#f6dddd"/><path d="M101.4,443.5c7.7-1.7,16.1,3.6,17.9,11.2s-1.6,16.4-8.8,19.8a15.5,15.5,0,0,1-19.2-4.9C84.5,460.6,90.1,445.4,101.4,443.5Z" fill="#f6dddd"/><path d="M554.4,445.5c8.3-2.9,18.1,2.8,19.7,11.5s-3.9,17.1-12.2,18.5-16.2-3.7-17.9-11.4S546.8,447.7,554.4,445.5Z" fill="#f6dddd"/><path d="M773.3,454.4c8.2-3.4,18.5,2,20.4,10.7s-3.9,18-12.6,19.1-16.7-4.8-17.6-13.1A15.2,15.2,0,0,1,773.3,454.4Z" fill="#f6dddd"/><path d="M213.4,470.7c8.5-2.1,17.8,4.5,18.6,13.3s-5.5,16.7-14,17.2-16.3-5.8-16.7-14A15.4,15.4,0,0,1,213.4,470.7Z" fill="#f6dddd"/><path d="M366.4,482.6c9.9-2.5,21,6.1,20.6,16.4a15.5,15.5,0,0,1-10,14.2c-9.6,3.8-21.5-3.9-22.3-14.2A15.6,15.6,0,0,1,366.4,482.6Z" fill="#f6dddd"/><path d="M878.3,483.4c10.5-4.2,22.7,5.7,21.9,16.7a15.6,15.6,0,0,1-13.3,14.4c-10.2,1.6-20.2-8.4-18.7-18.6A15.5,15.5,0,0,1,878.3,483.4Z" fill="#f6dddd"/><path d="M613.3,504.4c8-3.2,17.9,1.7,20.1,10S630.5,532.3,622,534s-16.2-3.1-18.2-10.7S605.9,506.9,613.3,504.4Z" fill="#f6dddd"/><path d="M471.4,512.7c8.5-2.7,18.2,3.4,19.5,12.2s-5.1,17.5-13.8,18-16.2-5.7-16.8-13.9S464.4,514.6,471.4,512.7Z" fill="#f6dddd"/><path d="M413.4,575.6a15.6,15.6,0,0,1,18.3,9.7c2.4,7.1.2,16-6.4,20.1a15.6,15.6,0,0,1-20.5-3.3C397.8,593.5,402.2,578.1,413.4,575.6Z" fill="#f6dddd"/><path d="M799.4,583.6c8.5-2.8,18.4,3.5,19.5,12.3s-5.2,17.4-13.8,17.9-16-5.5-16.7-13.6A15.3,15.3,0,0,1,799.4,583.6Z" fill="#f6dddd"/><path d="M116.2,603.3c9.2-3.6,20.3,3.7,20.5,13.6s-10.6,19.5-20.7,16.8a15.5,15.5,0,0,1-11.5-15.6C104.6,611.1,109.9,605.4,116.2,603.3Z" fill="#f6dddd"/><path d="M896.4,603.8c8.9-2.9,19.1,4,19.7,13.3,1.5,7.4-3,15.6-10.3,17.8s-18.7-2.8-20.1-11.7S888.2,605.9,896.4,603.8Z" fill="#f6dddd"/><path d="M564.4,622.7c8.5-3.4,18.9,2.3,20.5,11.3s-4.4,17.5-13,18.5a15.4,15.4,0,0,1-7.5-29.8Z" fill="#f6dddd"/></svg>